<svg width="252" height="78" viewBox="0 0 252 78" fill="none" xmlns="http://www.w3.org/2000/svg">
<g clip-path="url(#clip0_1950_36121)">
<path d="M84.2361 21.027C83.1238 20.8267 81.9103 20.7266 80.4946 20.7266C73.3148 20.7266 69.6743 24.2311 69.6743 31.2401V48.362H54.6069V6.7086H69.4721V13.2169C71.8991 8.21053 76.9552 6.30809 81.3036 6.30809C82.3148 6.30809 83.2249 6.30809 84.0339 6.60848V20.9268L84.2361 21.027Z" fill="white"/>
<path d="M93.8427 11.9153C98.3932 7.91015 103.753 5.80745 109.921 5.80745C116.09 5.80745 121.348 7.81002 125.798 11.715C130.146 15.7202 132.371 20.7266 132.371 26.7343C132.371 32.742 130.146 38.0488 125.697 42.1541C121.247 46.2593 115.888 48.362 109.618 48.362C103.348 48.362 97.9887 46.3594 93.6404 42.3543C89.2921 38.3492 87.0674 33.2426 87.0674 27.1348C87.0674 21.027 89.2921 16.0205 93.8427 11.9153ZM115.382 32.8421C116.899 31.1399 117.708 29.1374 117.708 26.9345C117.708 22.4288 114.371 18.724 109.82 18.724C105.27 18.724 101.831 22.4288 101.831 26.9345C101.831 31.4403 105.27 35.2452 109.82 35.2452C112.045 35.2452 113.865 34.4442 115.483 32.8421H115.382Z" fill="white"/>
<path d="M144.304 11.9153C148.854 7.91015 154.214 5.80745 160.382 5.80745C166.551 5.80745 171.809 7.81002 176.259 11.715C180.607 15.7202 182.832 20.7266 182.832 26.7343C182.832 32.742 180.607 38.0488 176.158 42.1541C171.708 46.2593 166.349 48.362 160.079 48.362C153.809 48.362 148.45 46.3594 144.101 42.3543C139.753 38.3492 137.528 33.2426 137.528 27.1348C137.528 21.027 139.753 16.0205 144.304 11.9153ZM165.843 32.8421C167.36 31.1399 168.169 29.1374 168.169 26.9345C168.169 22.4288 164.832 18.724 160.281 18.724C155.731 18.724 152.292 22.4288 152.292 26.9345C152.292 31.4403 155.731 35.2452 160.281 35.2452C162.506 35.2452 164.326 34.4442 165.944 32.8421H165.843Z" fill="white"/>
<path d="M211.551 47.4608V25.2324C211.551 21.9281 209.629 19.1245 206.191 19.1245C202.45 19.1245 200.225 21.3273 200.225 25.3325V47.4608H185.562V6.7086H200.124V11.8152C203.158 7.81002 207.708 5.90758 211.854 5.90758C217.315 5.90758 221.158 8.01027 223.584 12.3158C227.528 8.01027 232.18 5.90758 237.54 5.90758C248.663 5.90758 251.899 14.9191 251.899 22.8293V47.4608H237.236V25.2324C237.236 21.828 235.315 19.2247 231.877 19.2247C228.135 19.2247 225.91 21.3273 225.91 25.3325V47.561H211.247L211.551 47.4608Z" fill="white"/>
<path d="M45.3034 26.8344C45.3034 20.8267 43.0787 15.8203 38.7303 11.8152C34.382 7.81002 29.0225 5.90758 22.8539 5.90758C16.6854 5.90758 11.3258 8.01027 6.77528 12.0154C2.22472 16.0205 0 21.1271 0 27.2349C0 33.3428 2.1236 38.249 6.26966 42.2542C2.1236 46.2593 0 51.1656 0 56.8729C0 62.9807 2.1236 68.0873 6.57303 72.0924C10.9213 76.0976 16.382 78.1001 22.5506 78.1001C28.7191 78.1001 34.1798 75.9974 38.6292 71.8922C43.0787 67.7869 45.3034 62.6804 45.3034 56.4724C45.3034 50.2644 43.1798 45.6585 39.0337 41.7535C43.1798 37.7484 45.3034 32.742 45.3034 26.8344ZM22.6517 18.8241C27.2022 18.8241 30.5393 22.5289 30.5393 27.0347C30.5393 29.2375 29.7303 31.2401 28.2135 32.9422C26.6966 34.5443 24.7753 35.3453 22.5506 35.3453C18 35.3453 14.5618 31.5404 14.5618 27.0347C14.5618 22.5289 18 18.8241 22.5506 18.8241H22.6517ZM28.3146 62.5802C26.7978 64.1823 24.8764 64.9833 22.6517 64.9833C18.1011 64.9833 14.6629 61.1784 14.6629 56.6727C14.6629 52.1669 18.1011 48.4621 22.6517 48.4621C27.2022 48.4621 30.5393 52.1669 30.5393 56.6727C30.5393 58.8755 29.7303 60.8781 28.2135 62.5802H28.3146Z" fill="white"/>
<path d="M40.6515 12.6162C44.17 12.6162 47.0223 9.79195 47.0223 6.30809C47.0223 2.82423 44.17 0 40.6515 0C37.1331 0 34.2808 2.82423 34.2808 6.30809C34.2808 9.79195 37.1331 12.6162 40.6515 12.6162Z" fill="white"/>
</g>
<defs>
<clipPath id="clip0_1950_36121">
<rect width="252" height="78" fill="white"/>
</clipPath>
</defs>
</svg>
